# xmcd
#
# Track frame offsets: 
#        150
#        14885
#        33001
#        49375
#        67967
#        84582
#        97940
#        112701
#        125449
#        147072
#        163650
#        188814
#        209792
#        229994
#
# Disc length: 3228 seconds
#
# Revision: 0
# Processed by: cddbd v1.5.2PL0 Copyright (c) Steve Scherf et al.
# Submitted via: ExactAudioCopyFreeDBPlugin 1.0
#
DISCID=be0c9a0e
DTITLE=John Arthur Martinez - San Antonio Woman
DYEAR=2017
DGENRE=Country
TTITLE0=San Antonio Woman
TTITLE1=You Were That Oak
TTITLE2=This Is America I've Got Your Six
TTITLE3=Everything I Never Knew I Wanted
TTITLE4=Still No Rain in Texas
TTITLE5=I Dare You
TTITLE6='Til I'm Feelin' Well
TTITLE7=Everything Tastes Better with Beer
TTITLE8=Cry-in-Your-Beer Country Song
TTITLE9=An Early Thursday Morning
TTITLE10=El Paso
TTITLE11=If You Like That Sort of Thing
TTITLE12=Before I Could Even Learn Her Name
TTITLE13=I Will Rise I Will Rise
EXTD=
EXTT0=
EXTT1=
EXTT2=
EXTT3=
EXTT4=
EXTT5=
EXTT6=
EXTT7=
EXTT8=
EXTT9=
EXTT10=
EXTT11=
EXTT12=
EXTT13=
PLAYORDER=
